<?xml version="1.0" encoding="UTF-8" standalone="no"?>
<svg
   viewBox="0 0 24 24"
   version="1.1"
   id="svg1"
   sodipodi:docname="exit.svg"
   width="24"
   height="24"
   inkscape:version="1.4.2 (f4327f4, 2025-05-13)"
   xmlns:inkscape="http://www.inkscape.org/namespaces/inkscape"
   xmlns:sodipodi="http://sodipodi.sourceforge.net/DTD/sodipodi-0.dtd"
   xmlns="http://www.w3.org/2000/svg"
   xmlns:svg="http://www.w3.org/2000/svg">
  <defs
     id="defs1" />
  <sodipodi:namedview
     id="namedview1"
     pagecolor="#ffffff"
     bordercolor="#000000"
     borderopacity="0.25"
     inkscape:showpageshadow="2"
     inkscape:pageopacity="0.0"
     inkscape:pagecheckerboard="0"
     inkscape:deskcolor="#d1d1d1"
     inkscape:zoom="20.725"
     inkscape:cx="1.3027744"
     inkscape:cy="12.472859"
     inkscape:window-width="1920"
     inkscape:window-height="1009"
     inkscape:window-x="-8"
     inkscape:window-y="-8"
     inkscape:window-maximized="1"
     inkscape:current-layer="layer1" />
  <!--!Font Awesome Free 7.2.0 by @fontawesome - https://fontawesome.com License - https://fontawesome.com/license/free Copyright 2026 Fonticons, Inc.-->
  <path
     d="m 3.1330927,3.5425154 c 0,-1.5885 1.2915,-2.88000003 2.88,-2.88000003 H 17.533092 c 1.5885,0 2.88,1.29150003 2.88,2.88000003 V 20.822515 c 0.7965,0 1.44,0.6435 1.44,1.44 0,0.7965 -0.6435,1.44 -1.44,1.44 H 3.1330927 c -0.7965,0 -1.44,-0.6435 -1.44,-1.44 0,-0.7965 0.6435,-1.44 1.44,-1.44 z M 16.093092,13.622515 c 0.7965,0 1.44,-0.6435 1.44,-1.44 0,-0.7965 -0.6435,-1.44 -1.44,-1.44 -0.7965,0 -1.44,0.6435 -1.44,1.44 0,0.7965 0.6435,1.44 1.44,1.44 z"
     id="path1"
     style="display:none;stroke-width:0.045" />
  <g
     inkscape:groupmode="layer"
     id="layer1"
     inkscape:label="Layer 1">
    <path
       style="fill:none;stroke:#000000;stroke-width:2;stroke-linecap:round;stroke-miterlimit:0;stroke-dasharray:none;paint-order:stroke fill markers"
       d="m 3.5,22 h 17"
       id="path2"
       sodipodi:nodetypes="cc" />
    <path
       style="fill:none;stroke:#000000;stroke-width:2;stroke-linecap:round;stroke-linejoin:round;stroke-miterlimit:0;stroke-dasharray:none;paint-order:stroke fill markers"
       d="m 4.9360277,22.006497 v -16 a 2,2 0 0 1 2,-2 h 10 a 2,2 0 0 1 2,2 v 16 z"
       id="path3"
       sodipodi:nodetypes="cccccc" />
    <circle
       style="fill:#000000;fill-opacity:1;stroke:none;stroke-width:1.75014;stroke-linecap:round;stroke-linejoin:round;stroke-miterlimit:0;stroke-dasharray:none;paint-order:stroke fill markers"
       id="path4"
       cx="15.470391"
       cy="12.289505"
       r="1.25" />
  </g>
</svg>